<?xml version="1.0" encoding="UTF-8" standalone="no"?>
<!-- Created with Inkscape (http://www.inkscape.org/) -->

<svg
   xmlns:dc="http://purl.org/dc/elements/1.1/"
   xmlns:cc="http://creativecommons.org/ns#"
   xmlns:rdf="http://www.w3.org/1999/02/22-rdf-syntax-ns#"
   xmlns:svg="http://www.w3.org/2000/svg"
   xmlns="http://www.w3.org/2000/svg"
   xmlns:sodipodi="http://sodipodi.sourceforge.net/DTD/sodipodi-0.dtd"
   xmlns:inkscape="http://www.inkscape.org/namespaces/inkscape"
   width="349.18985"
   height="503.47559"
   id="svg2"
   version="1.1"
   inkscape:version="0.47 r22583"
   sodipodi:docname="blinky.svg">
  <defs
     id="defs4">
    <inkscape:perspective
       sodipodi:type="inkscape:persp3d"
       inkscape:vp_x="0 : 526.18109 : 1"
       inkscape:vp_y="0 : 1000 : 0"
       inkscape:vp_z="744.09448 : 526.18109 : 1"
       inkscape:persp3d-origin="372.04724 : 350.78739 : 1"
       id="perspective10" />
    <inkscape:perspective
       id="perspective2849"
       inkscape:persp3d-origin="0.5 : 0.33333333 : 1"
       inkscape:vp_z="1 : 0.5 : 1"
       inkscape:vp_y="0 : 1000 : 0"
       inkscape:vp_x="0 : 0.5 : 1"
       sodipodi:type="inkscape:persp3d" />
    <inkscape:perspective
       id="perspective2871"
       inkscape:persp3d-origin="0.5 : 0.33333333 : 1"
       inkscape:vp_z="1 : 0.5 : 1"
       inkscape:vp_y="0 : 1000 : 0"
       inkscape:vp_x="0 : 0.5 : 1"
       sodipodi:type="inkscape:persp3d" />
    <inkscape:perspective
       id="perspective2893"
       inkscape:persp3d-origin="0.5 : 0.33333333 : 1"
       inkscape:vp_z="1 : 0.5 : 1"
       inkscape:vp_y="0 : 1000 : 0"
       inkscape:vp_x="0 : 0.5 : 1"
       sodipodi:type="inkscape:persp3d" />
  </defs>
  <sodipodi:namedview
     id="base"
     pagecolor="#ffffff"
     bordercolor="#666666"
     borderopacity="1.0"
     inkscape:pageopacity="0.0"
     inkscape:pageshadow="2"
     inkscape:zoom="0.7"
     inkscape:cx="215.30921"
     inkscape:cy="141.73778"
     inkscape:document-units="px"
     inkscape:current-layer="layer1"
     showgrid="false"
     inkscape:window-width="964"
     inkscape:window-height="988"
     inkscape:window-x="211"
     inkscape:window-y="161"
     inkscape:window-maximized="0"
     inkscape:object-nodes="false"
     inkscape:snap-midpoints="false"
     inkscape:snap-object-midpoints="false"
     inkscape:snap-smooth-nodes="true"
     inkscape:snap-nodes="true"
     inkscape:object-paths="true"
     units="pt" />
  <metadata
     id="metadata7">
    <rdf:RDF>
      <cc:Work
         rdf:about="">
        <dc:format>image/svg+xml</dc:format>
        <dc:type
           rdf:resource="http://purl.org/dc/dcmitype/StillImage" />
        <dc:title />
      </cc:Work>
    </rdf:RDF>
  </metadata>
  <g
     inkscape:label="Layer 1"
     inkscape:groupmode="layer"
     id="layer1"
     transform="translate(-160.40508,-174.1958)">
    <path
       style="fill:none;stroke:#000000;stroke-width:14.10000038;stroke-linecap:butt;stroke-linejoin:round;stroke-miterlimit:4.63333321;stroke-opacity:1;stroke-dasharray:none"
       d="m 349.89001,318.06454 1.53856,212.86907"
       id="path2909"
       sodipodi:nodetypes="cc" />
    <path
       style="fill:none;stroke:#000000;stroke-width:14.10000038;stroke-linecap:butt;stroke-linejoin:round;stroke-miterlimit:4.63333321;stroke-opacity:1;stroke-dasharray:none"
       d="m 483.22712,578.13511 3.91574,-92.91578 -135.71429,45.71428 -44.28571,87.14286 -93.36376,21.3439"
       id="path2911"
       sodipodi:nodetypes="ccccc" />
    <path
       style="fill:none;stroke:#000000;stroke-width:14.10000038;stroke-linecap:butt;stroke-linejoin:round;stroke-miterlimit:4.63333321;stroke-opacity:1;stroke-dasharray:none"
       d="m 465.03936,390.74059 -38.63827,43.87874 -74.25823,-10.11429 -75.65934,-42.14286 -37.36968,25.00808"
       id="path2913"
       sodipodi:nodetypes="ccccc" />
    <path
       sodipodi:type="arc"
       style="fill:#000000;fill-opacity:1;stroke:#000000;stroke-width:2.04699993;stroke-miterlimit:4;stroke-opacity:1;stroke-dasharray:none;stroke-dashoffset:0"
       id="path2816"
       sodipodi:cx="330"
       sodipodi:cy="249.50504"
       sodipodi:rx="71.428574"
       sodipodi:ry="71.428574"
       d="m 401.42857,249.50504 c 0,39.44891 -31.97966,71.42857 -71.42857,71.42857 -39.44891,0 -71.42857,-31.97966 -71.42857,-71.42857 0,-39.44892 31.97966,-71.42858 71.42857,-71.42858 39.44891,0 71.42857,31.97966 71.42857,71.42858 z"
       transform="matrix(-1,0,0,1,678.57142,-2.8571429)" />
    <path
       sodipodi:type="arc"
       style="fill:#000000;fill-opacity:1;stroke:#000000;stroke-width:2.04699993;stroke-miterlimit:4;stroke-opacity:1;stroke-dasharray:none;stroke-dashoffset:0"
       id="path2839"
       sodipodi:cx="157.14285"
       sodipodi:cy="409.50504"
       sodipodi:rx="27.142857"
       sodipodi:ry="27.142857"
       d="m 184.28571,409.50504 c 0,14.99058 -12.15227,27.14285 -27.14286,27.14285 -14.99058,0 -27.14285,-12.15227 -27.14285,-27.14285 0,-14.99059 12.15227,-27.14286 27.14285,-27.14286 14.99059,0 27.14286,12.15227 27.14286,27.14286 z"
       transform="matrix(-1,0,0,1,635.3846,-42.485712)" />
    <path
       transform="matrix(-1,0,0,1,638.57142,195.71429)"
       sodipodi:type="arc"
       style="fill:#000000;fill-opacity:1;stroke:#000000;stroke-width:2.04699993;stroke-miterlimit:4;stroke-opacity:1;stroke-dasharray:none;stroke-dashoffset:0"
       id="path2839-5"
       sodipodi:cx="157.14285"
       sodipodi:cy="409.50504"
       sodipodi:rx="27.142857"
       sodipodi:ry="27.142857"
       d="m 184.28571,409.50504 c 0,14.99058 -12.15227,27.14285 -27.14286,27.14285 -14.99058,0 -27.14285,-12.15227 -27.14285,-27.14285 0,-14.99059 12.15227,-27.14286 27.14285,-27.14286 14.99059,0 27.14286,12.15227 27.14286,27.14286 z" />
    <path
       transform="matrix(-1,0,0,1,345.71429,240)"
       sodipodi:type="arc"
       style="fill:#000000;fill-opacity:1;stroke:#000000;stroke-width:2.04699993;stroke-miterlimit:4;stroke-opacity:1;stroke-dasharray:none;stroke-dashoffset:0"
       id="path2839-5-5"
       sodipodi:cx="157.14285"
       sodipodi:cy="409.50504"
       sodipodi:rx="27.142857"
       sodipodi:ry="27.142857"
       d="m 184.28571,409.50504 c 0,14.99058 -12.15227,27.14285 -27.14286,27.14285 -14.99058,0 -27.14285,-12.15227 -27.14285,-27.14285 0,-14.99059 12.15227,-27.14286 27.14285,-27.14286 14.99059,0 27.14286,12.15227 27.14286,27.14286 z" />
    <path
       transform="matrix(-1,0,0,1,372.85714,11.628575)"
       sodipodi:type="arc"
       style="fill:#000000;fill-opacity:1;stroke:#000000;stroke-width:2.04699993;stroke-miterlimit:4;stroke-opacity:1;stroke-dasharray:none;stroke-dashoffset:0"
       id="path2839-5-5-4"
       sodipodi:cx="157.14285"
       sodipodi:cy="409.50504"
       sodipodi:rx="27.142857"
       sodipodi:ry="27.142857"
       d="m 184.28571,409.50504 c 0,14.99058 -12.15227,27.14285 -27.14286,27.14285 -14.99058,0 -27.14285,-12.15227 -27.14285,-27.14285 0,-14.99059 12.15227,-27.14286 27.14285,-27.14286 14.99059,0 27.14286,12.15227 27.14286,27.14286 z" />
  </g>
</svg>
